# Blender 3.4.1
# www.blender.org
mtllib Board.mtl
o Cube
v 30.121538 2.069221 -36.719429
v 30.121538 8.031062 -36.719429
v 30.121538 2.069223 -49.787651
v 30.121538 8.031064 -49.787651
v 32.212921 2.069221 -36.719429
v 32.212921 8.031062 -36.719429
v 32.212921 2.069223 -49.787651
v 32.212921 8.031064 -49.787651
v 30.121538 7.640809 -36.719429
v 30.121538 7.640811 -49.787651
v 32.212921 7.640811 -49.787651
v 32.212921 7.640809 -36.719429
v 30.121538 2.571451 -49.787651
v 32.212921 2.571451 -49.787651
v 32.212921 2.571449 -36.719429
v 30.121538 2.571449 -36.719429
v 30.121538 2.069221 -37.319252
v 30.121538 8.031062 -37.319248
v 32.212921 2.069221 -37.319252
v 32.212921 8.031062 -37.319248
v 32.212921 7.640809 -37.319248
v 30.419777 7.640809 -37.319248
v 30.419777 2.571449 -37.319252
v 32.212921 2.571449 -37.319252
v 30.121538 8.031064 -49.160706
v 32.212921 2.069223 -49.160706
v 30.419777 7.640811 -49.160706
v 30.419777 2.571451 -49.160706
v 30.121538 2.069223 -49.160706
v 32.212921 8.031064 -49.160706
v 32.212921 7.640811 -49.160706
v 32.212921 2.571451 -49.160706
v 30.121538 2.069223 -48.970455
v 32.212921 8.031064 -48.970451
v 32.212921 7.640811 -48.970451
v 32.212921 2.571451 -48.970455
v 30.121538 8.031064 -48.970451
v 32.212921 2.069223 -48.970455
v 30.419777 7.640811 -48.970451
v 30.419777 2.571451 -48.970455
v 30.121538 2.069221 -37.548870
v 32.212921 8.031062 -37.548866
v 32.212921 7.640809 -37.548866
v 32.212921 2.571449 -37.548870
v 30.121538 8.031062 -37.548866
v 32.212921 2.069221 -37.548870
v 30.419777 7.640809 -37.548866
v 30.419777 2.571449 -37.548870
v 30.121538 7.320030 -36.719429
v 30.121538 7.320032 -49.787651
v 32.212921 7.320032 -49.787651
v 32.212921 7.320030 -36.719429
v 30.419777 7.320030 -37.319248
v 32.212921 7.320030 -37.319248
v 32.212921 7.320032 -49.160706
v 30.419777 7.320032 -49.160706
v 30.419777 7.320032 -48.970451
v 32.212921 7.320032 -48.970451
v 30.419777 7.320030 -37.548866
v 32.212921 7.320030 -37.548866
v 30.121538 2.924833 -49.787651
v 32.212921 2.924833 -49.787651
v 32.212921 2.924831 -36.719429
v 30.419777 2.924831 -37.319252
v 32.212921 2.924831 -37.319252
v 32.212921 2.924833 -49.160706
v 30.419777 2.924833 -49.160706
v 30.419777 2.924833 -48.970455
v 32.212921 2.924833 -48.970455
v 30.419777 2.924831 -37.548870
v 32.212921 2.924831 -37.548870
v 30.121538 2.924831 -36.719429
v 30.121538 8.031064 -49.476337
v 32.212921 2.069223 -49.476341
v 30.269629 7.640811 -49.476337
v 30.269629 2.571451 -49.476341
v 30.121538 2.069223 -49.476341
v 32.212921 8.031064 -49.476337
v 32.212921 7.640811 -49.476337
v 32.212921 2.571451 -49.476341
v 32.212921 7.320032 -49.476337
v 30.269629 7.320032 -49.476337
v 30.269629 2.924833 -49.476341
v 32.212921 2.924833 -49.476341
v 30.121538 2.069221 -36.929367
v 32.212921 8.031062 -36.929367
v 32.212921 7.640809 -36.929367
v 32.212921 2.571449 -36.929367
v 30.121538 8.031062 -36.929367
v 32.212921 2.069221 -36.929367
v 30.225922 7.640809 -36.929367
v 30.225922 2.571449 -36.929367
v 30.225922 7.320030 -36.929367
v 32.212921 7.320030 -36.929367
v 32.212921 2.924831 -36.929367
v 30.225922 2.924831 -36.929367
vn -0.9265 -0.1793 0.3308
vn -0.7905 0.5829 0.1880
vn -0.6477 0.5541 -0.5229
vn -0.8082 -0.0789 -0.5836
vn 0.5774 0.5774 -0.5774
vn 0.7071 -0.0000 -0.7071
vn 1.0000 -0.0000 -0.0000
vn 0.7071 0.7071 -0.0000
vn 0.5774 0.5774 0.5774
vn 0.7071 -0.0000 0.7071
vn -0.6396 0.5791 0.5056
vn -0.8148 -0.0564 0.5770
vn -0.7586 -0.6236 -0.1886
vn 0.7071 -0.7071 -0.0000
vn 0.5774 -0.5774 0.5774
vn -0.6340 -0.5908 0.4990
vn -0.7745 0.6025 -0.1926
vn -0.8501 -0.0000 0.5267
vn -0.8455 -0.0000 -0.5341
vn -0.9030 -0.0000 0.4296
vn -0.7723 -0.6081 0.1837
vn -0.9327 0.1425 0.3314
vn -0.8104 0.0617 -0.5826
vn -0.6409 -0.5710 -0.5131
vn 0.5774 -0.5774 -0.5774
vn -0.8159 0.0440 0.5764
vn -0.9308 0.1217 -0.3447
vn -0.9593 0.2230 -0.1733
vn -0.8379 -0.5352 -0.1068
vn -0.8954 -0.0000 -0.4452
vn -0.9262 -0.1537 -0.3443
vn -0.9467 -0.2715 -0.1732
vn -0.9735 -0.0000 -0.2287
vn -0.8964 0.4432 -0.0000
vn -0.8638 0.4911 -0.1121
vn -0.8691 -0.4947 -0.0000
vn -0.8442 -0.5262 0.1023
vn -0.8707 0.4800 0.1071
vn -0.9643 0.2647 -0.0000
vn -0.9586 0.2312 0.1662
vn -0.9472 -0.3205 -0.0000
vn -0.9453 -0.2809 0.1660
vn -0.9755 -0.0000 0.2202
vn -1.0000 -0.0000 -0.0000
vt 0.125000 0.750000
vt 0.375000 1.000000
vt 0.375000 0.000000
vt 0.625000 1.000000
vt 0.875000 0.750000
vt 0.625000 0.000000
vt 0.375000 0.250000
vt 0.125000 0.500000
vt 0.625000 0.250000
vt 0.875000 0.500000
vt 0.375000 0.750000
vt 0.625000 0.750000
vt 0.375000 0.500000
vt 0.625000 0.500000
vt 0.608635 1.000000
vt 0.608635 0.000000
vt 0.608635 0.250000
vt 0.608635 0.500000
vt 0.608635 0.750000
vt 0.396060 0.250000
vt 0.396060 0.500000
vt 0.396060 0.750000
vt 0.396060 1.000000
vt 0.396060 0.000000
vt 0.375000 0.011475
vt 0.125000 0.738525
vt 0.625000 0.011475
vt 0.875000 0.738525
vt 0.375000 0.738525
vt 0.625000 0.738525
vt 0.608635 0.738525
vt 0.608635 0.011475
vt 0.396060 0.011475
vt 0.396060 0.738525
vt 0.875000 0.511994
vt 0.625000 0.238006
vt 0.375000 0.511994
vt 0.608635 0.238006
vt 0.396060 0.238006
vt 0.125000 0.511994
vt 0.375000 0.238006
vt 0.625000 0.511994
vt 0.608635 0.511994
vt 0.396060 0.511994
vt 0.375000 0.234367
vt 0.125000 0.515633
vt 0.625000 0.515633
vt 0.608635 0.515633
vt 0.396060 0.515633
vt 0.625000 0.234367
vt 0.875000 0.515633
vt 0.375000 0.515633
vt 0.608635 0.234367
vt 0.396060 0.234367
vt 0.375000 0.015867
vt 0.125000 0.734133
vt 0.625000 0.734133
vt 0.608635 0.734133
vt 0.396060 0.734133
vt 0.625000 0.015867
vt 0.875000 0.734133
vt 0.375000 0.734133
vt 0.608635 0.015867
vt 0.396060 0.015867
vt 0.595184 1.000000
vt 0.595184 0.000000
vt 0.595184 0.250000
vt 0.595184 0.500000
vt 0.595184 0.750000
vt 0.595184 0.011475
vt 0.595184 0.738525
vt 0.595184 0.511994
vt 0.595184 0.238006
vt 0.595184 0.234367
vt 0.595184 0.515633
vt 0.595184 0.015867
vt 0.595184 0.734133
vt 0.415416 0.250000
vt 0.415417 0.500000
vt 0.415416 0.750000
vt 0.415417 0.011475
vt 0.415416 0.738525
vt 0.415416 0.511994
vt 0.415417 0.238006
vt 0.415417 0.234367
vt 0.415416 0.515633
vt 0.415417 0.015867
vt 0.415416 0.734133
vt 0.415416 1.000000
vt 0.415416 0.000000
vt 0.875000 0.505955
vt 0.624996 0.244041
vt 0.375000 0.505956
vt 0.608635 0.244044
vt 0.396060 0.244045
vt 0.125000 0.505955
vt 0.375003 0.244040
vt 0.625000 0.505956
vt 0.608635 0.505955
vt 0.396060 0.505955
vt 0.595184 0.505955
vt 0.595184 0.244045
vt 0.415417 0.244045
vt 0.415416 0.505955
vt 0.375166 0.004219
vt 0.125000 0.745984
vt 0.625000 0.745984
vt 0.608635 0.745984
vt 0.396060 0.745984
vt 0.624817 0.004191
vt 0.875000 0.745984
vt 0.375000 0.745984
vt 0.608635 0.004016
vt 0.396060 0.004016
vt 0.595184 0.004016
vt 0.595184 0.745984
vt 0.415416 0.745984
vt 0.415416 0.004016
s 1
usemtl Material.002
f 75/94/1 73/92/2 4/9/3 10/17/4
f 10/17/4 4/9/3 8/14/5 11/18/6
f 87/108/7 86/107/8 6/12/9 12/19/10
f 12/19/10 6/12/9 2/4/11 9/15/12
f 85/106/13 90/112/14 5/11/15 1/1/16
f 86/107/8 89/111/17 2/5/11 6/12/9
f 52/69/10 12/19/10 9/15/12 49/65/18
f 94/116/7 87/108/7 12/19/10 52/69/10
f 50/67/19 10/17/4 11/18/6 51/68/6
f 82/102/20 75/94/1 10/17/4 50/67/19
f 77/97/21 76/95/22 13/20/23 3/7/24
f 3/7/24 13/20/23 14/21/6 7/13/25
f 90/112/14 88/109/7 15/22/10 5/11/15
f 5/11/15 15/22/10 16/23/26 1/2/16
f 46/62/14 44/59/7 24/34/7 19/29/14
f 85/105/13 92/114/27 23/33/28 17/25/29
f 93/115/30 91/113/31 22/32/32 53/70/33
f 60/77/7 43/58/7 21/31/7 54/71/7
f 42/57/8 45/61/34 18/28/35 20/30/8
f 41/56/36 46/62/14 19/29/14 17/26/29
f 43/58/7 42/57/8 20/30/8 21/31/7
f 91/113/31 89/110/17 18/27/35 22/32/32
f 79/99/7 78/98/8 30/42/8 31/43/7
f 77/96/21 74/93/14 26/37/14 29/40/37
f 78/98/8 73/91/2 25/35/38 30/42/8
f 81/101/7 79/99/7 31/43/7 55/72/7
f 74/93/14 80/100/7 32/44/7 26/37/14
f 33/45/36 40/54/39 28/39/40 29/41/37
f 39/53/41 37/50/34 25/36/38 27/38/42
f 47/63/41 45/60/34 37/50/34 39/53/41
f 41/55/36 48/64/39 40/54/39 33/45/36
f 31/43/7 30/42/8 34/47/8 35/48/7
f 29/40/37 26/37/14 38/52/14 33/46/36
f 30/42/8 25/35/38 37/51/34 34/47/8
f 55/72/7 31/43/7 35/48/7 58/75/7
f 26/37/14 32/44/7 36/49/7 38/52/14
f 17/25/29 23/33/28 48/64/39 41/55/36
f 22/32/32 18/27/35 45/60/34 47/63/41
f 35/48/7 34/47/8 42/57/8 43/58/7
f 33/46/36 38/52/14 46/62/14 41/56/36
f 34/47/8 37/51/34 45/61/34 42/57/8
f 58/75/7 35/48/7 43/58/7 60/77/7
f 38/52/14 36/49/7 44/59/7 46/62/14
f 69/86/7 58/75/7 60/77/7 71/88/7
f 66/83/7 55/72/7 58/75/7 69/86/7
f 84/104/7 81/101/7 55/72/7 66/83/7
f 71/88/7 60/77/7 54/71/7 65/82/7
f 96/118/30 93/115/30 53/70/33 64/81/33
f 83/103/20 82/102/20 50/67/19 61/78/19
f 61/78/19 50/67/19 51/68/6 62/79/6
f 95/117/7 94/116/7 52/69/10 63/80/10
f 63/80/10 52/69/10 49/65/18 72/89/18
f 15/22/10 63/80/10 72/89/18 16/23/26
f 88/109/7 95/117/7 63/80/10 15/22/10
f 13/20/23 61/78/19 62/79/6 14/21/6
f 76/95/22 83/103/20 61/78/19 13/20/23
f 92/114/27 96/118/30 64/81/33 23/33/28
f 44/59/7 71/88/7 65/82/7 24/34/7
f 80/100/7 84/104/7 66/83/7 32/44/7
f 32/44/7 66/83/7 69/86/7 36/49/7
f 36/49/7 69/86/7 71/88/7 44/59/7
f 14/21/6 62/79/6 84/104/7 80/100/7
f 28/39/40 67/84/43 83/103/20 76/95/22
f 67/84/43 56/73/43 82/102/20 83/103/20
f 62/79/6 51/68/6 81/101/7 84/104/7
f 7/13/25 14/21/6 80/100/7 74/93/14
f 51/68/6 11/18/6 79/99/7 81/101/7
f 8/14/5 4/10/3 73/91/2 78/98/8
f 3/8/24 7/13/25 74/93/14 77/96/21
f 11/18/6 8/14/5 78/98/8 79/99/7
f 29/41/37 28/39/40 76/95/22 77/97/21
f 56/73/43 27/38/42 75/94/1 82/102/20
f 27/38/42 25/36/38 73/92/2 75/94/1
f 16/24/26 72/90/18 96/118/30 92/114/27
f 24/34/7 65/82/7 95/117/7 88/109/7
f 65/82/7 54/71/7 94/116/7 95/117/7
f 72/90/18 49/66/18 93/115/30 96/118/30
f 9/16/12 2/6/11 89/110/17 91/113/31
f 49/66/18 9/16/12 91/113/31 93/115/30
f 1/3/16 16/24/26 92/114/27 85/105/13
f 19/29/14 24/34/7 88/109/7 90/112/14
f 54/71/7 21/31/7 87/108/7 94/116/7
f 20/30/8 18/28/35 89/111/17 86/107/8
f 17/26/29 19/29/14 90/112/14 85/106/13
f 21/31/7 20/30/8 86/107/8 87/108/7
usemtl Material.003
f 57/74/44 39/53/41 27/38/42 56/73/43
f 59/76/44 47/63/41 39/53/41 57/74/44
f 53/70/33 22/32/32 47/63/41 59/76/44
f 64/81/33 53/70/33 59/76/44 70/87/44
f 70/87/44 59/76/44 57/74/44 68/85/44
f 68/85/44 57/74/44 56/73/43 67/84/43
f 40/54/39 68/85/44 67/84/43 28/39/40
f 48/64/39 70/87/44 68/85/44 40/54/39
f 23/33/28 64/81/33 70/87/44 48/64/39
