# Blender 3.4.1
# www.blender.org
mtllib board1.mtl
o Cube.002
v 30.700134 9.480660 48.012238
v 30.700134 12.143720 48.012238
v 30.700134 9.480661 42.174873
v 30.700134 12.143721 42.174873
v 31.634323 9.480660 48.012238
v 31.634323 12.143720 48.012238
v 31.634323 9.480661 42.174873
v 31.634323 12.143721 42.174873
v 30.700134 11.969399 48.012238
v 30.700134 11.969400 42.174873
v 31.634323 11.969400 42.174873
v 31.634323 11.969399 48.012238
v 30.700134 9.704999 42.174873
v 31.634323 9.704999 42.174873
v 31.634323 9.704998 48.012238
v 30.700134 9.704998 48.012238
v 30.700134 9.480661 47.744308
v 30.700134 12.143721 47.744308
v 31.634323 9.480661 47.744308
v 31.634323 12.143721 47.744308
v 31.634323 11.969400 47.744308
v 30.833355 11.969400 47.744308
v 30.833355 9.704999 47.744308
v 31.634323 9.704999 47.744308
v 30.700134 12.143721 42.454918
v 31.634323 9.480661 42.454918
v 30.833355 11.969400 42.454918
v 30.833355 9.704999 42.454918
v 30.700134 9.480661 42.454918
v 31.634323 12.143721 42.454918
v 31.634323 11.969400 42.454918
v 31.634323 9.704999 42.454918
vn -1.0000 -0.0000 -0.0000
vn -0.9119 -0.3485 0.2169
vn -0.0000 -0.0000 -1.0000
vn 1.0000 -0.0000 -0.0000
vn -0.0000 -0.0000 1.0000
vn -0.0000 -1.0000 -0.0000
vn -0.0000 1.0000 -0.0000
vn -0.9030 -0.0000 0.4296
vn -0.9346 0.2775 0.2223
vn -0.9325 0.2769 -0.2318
vn -0.8954 -0.0000 -0.4452
vn -0.9099 -0.3477 -0.2262
vn -0.8598 0.5106 -0.0000
vn -0.7945 -0.6072 -0.0000
vt 0.125000 0.750000
vt 0.375000 1.000000
vt 0.375000 0.000000
vt 0.625000 1.000000
vt 0.875000 0.750000
vt 0.625000 0.000000
vt 0.375000 0.250000
vt 0.125000 0.500000
vt 0.625000 0.250000
vt 0.875000 0.500000
vt 0.375000 0.750000
vt 0.625000 0.750000
vt 0.375000 0.500000
vt 0.625000 0.500000
vt 0.608635 1.000000
vt 0.608635 0.000000
vt 0.608635 0.250000
vt 0.608635 0.500000
vt 0.608635 0.750000
vt 0.396060 0.250000
vt 0.396060 0.500000
vt 0.396060 0.750000
vt 0.396060 1.000000
vt 0.396060 0.000000
vt 0.125000 0.738525
vt 0.375000 0.011475
vt 0.875000 0.738525
vt 0.625000 0.011475
vt 0.375000 0.738525
vt 0.625000 0.738525
vt 0.608635 0.738525
vt 0.608635 0.011475
vt 0.396060 0.011475
vt 0.396060 0.738525
vt 0.875000 0.511994
vt 0.625000 0.238006
vt 0.375000 0.511994
vt 0.608635 0.238006
vt 0.396060 0.238006
vt 0.125000 0.511994
vt 0.375000 0.238006
vt 0.625000 0.511994
vt 0.608635 0.511994
vt 0.396060 0.511994
s 0
usemtl Material.071
f 23/33/1 22/32/1 27/38/1 28/39/1
usemtl Material.074
f 27/38/2 25/36/2 4/9/2 10/17/2
f 10/17/3 4/9/3 8/14/3 11/18/3
f 21/31/4 20/30/4 6/12/4 12/19/4
f 12/19/5 6/12/5 2/4/5 9/15/5
f 17/25/6 19/29/6 5/11/6 1/1/6
f 20/30/7 18/27/7 2/5/7 6/12/7
f 15/22/5 12/19/5 9/15/5 16/23/5
f 24/34/4 21/31/4 12/19/4 15/22/4
f 13/20/3 10/17/3 11/18/3 14/21/3
f 28/39/8 27/38/8 10/17/8 13/20/8
f 29/41/9 28/39/9 13/20/9 3/7/9
f 3/7/3 13/20/3 14/21/3 7/13/3
f 19/29/4 24/34/4 15/22/4 5/11/4
f 5/11/5 15/22/5 16/23/5 1/2/5
f 26/37/4 32/44/4 24/34/4 19/29/4
f 1/3/10 16/24/10 23/33/10 17/26/10
f 16/24/11 9/16/11 22/32/11 23/33/11
f 32/44/4 31/43/4 21/31/4 24/34/4
f 30/42/7 25/35/7 18/27/7 20/30/7
f 29/40/6 26/37/6 19/29/6 17/25/6
f 31/43/4 30/42/4 20/30/4 21/31/4
f 9/16/12 2/6/12 18/28/12 22/32/12
f 11/18/4 8/14/4 30/42/4 31/43/4
f 3/8/6 7/13/6 26/37/6 29/40/6
f 8/14/7 4/10/7 25/35/7 30/42/7
f 14/21/4 11/18/4 31/43/4 32/44/4
f 7/13/4 14/21/4 32/44/4 26/37/4
f 17/26/13 23/33/13 28/39/13 29/41/13
f 22/32/14 18/28/14 25/36/14 27/38/14
